<?xml version="1.0" encoding="utf-8"?>
<!-- Generator: Adobe Illustrator 23.0.1, SVG Export Plug-In . SVG Version: 6.00 Build 0)  -->
<svg version="1.1" xmlns="http://www.w3.org/2000/svg" xmlns:xlink="http://www.w3.org/1999/xlink" x="0px" y="0px"
	 viewBox="0 0 999.21 465.57" style="enable-background:new 0 0 999.21 465.57;" xml:space="preserve">
<style type="text/css">
	.st0{fill:#008556;}
	.st1{fill:none;}
</style>
<g id="Brandmark">
	<g>
		<g>
			<g>
				<g>
					<path class="st0" d="M108.14,275.53H91.7v45.85h16.12c15.36,0,25.51-10.51,25.51-23.05
						C133.33,285.75,123.47,275.53,108.14,275.53z M108.34,312.32h-6.23v-27.68h6.23c8.63,0,14.65,5.88,14.65,13.81
						C122.98,306.3,117.05,312.32,108.34,312.32z"/>
					<path class="st0" d="M169.91,302.34c0,6.37-3.95,10.11-9.27,10.11c-5.33,0-9.34-3.75-9.34-10.11v-26.81h-10.54v27.13
						c0,11.72,7.69,19.36,19.56,19.36c11.75,0,19.81-7.92,19.81-19.68v-26.81h-10.22V302.34z"/>
					<path class="st0" d="M219.59,297.37c3.68-2.11,5.92-5.67,5.92-9.99c0-7.63-6.62-11.85-14.5-11.85h-20.59v45.85h21.76
						c8.25,0,15.34-4.91,15.34-12.82C227.52,303.48,224.59,299.24,219.59,297.37z M208.87,293.99h-8.04v-10.32h8.04
						c4.14,0,6.23,2.47,6.23,5.19C215.1,291.52,213,293.99,208.87,293.99z M200.83,301.62h9.53c4.08,0,6.81,2.34,6.81,5.77
						c0,3.1-2.37,5.9-6.81,5.9h-9.53V301.62z"/>
					<path class="st0" d="M258.6,275.53h-10.18l-18.6,45.85h10.91l3.63-9.52h17.79l3.63,9.52h11.43l-18.54-45.69L258.6,275.53z
						 M259.17,303.52h-11.91l5.98-15.69L259.17,303.52z"/>
					<rect x="282.69" y="275.53" class="st0" width="10.67" height="45.85"/>
					<path class="st0" d="M340.46,275.53h-19.88v45.85h10.41V307h9.14c10.94,0,17.55-7.15,17.55-15.86
						C357.68,281.38,350.33,275.53,340.46,275.53z M330.99,284.39h8.49c4.98,0,7.85,3.14,7.85,7.01c0,3.88-2.88,7-7.85,7h-8.49
						V284.39z"/>
					<path class="st0" d="M387.27,274.88c-13.62,0-24.22,10.36-24.22,23.77c0,13.18,10.06,23.38,23.9,23.38
						c13.6,0,24.22-10.27,24.22-23.7C411.16,285.15,401.1,274.88,387.27,274.88z M387.14,312.46c-7.97,0-13.68-6.02-13.68-14
						c0-7.78,5.6-13.94,13.68-13.94c7.84,0,13.68,5.99,13.68,13.94C400.81,306.45,395,312.46,387.14,312.46z"/>
					<path class="st0" d="M511.83,307.46c-2.69,3.31-6.27,5-10.65,5c-7.93,0-13.68-5.89-13.68-14c0-8.08,5.75-13.94,13.68-13.94
						c4.21,0,7.7,1.57,10.38,4.67l0.17,0.19l7.6-6.76l-0.17-0.19c-4.65-5.01-10.65-7.56-17.84-7.56
						c-13.58,0-24.22,10.44-24.22,23.77c0,13.33,10.27,23.38,23.9,23.38c7.4,0,13.59-2.73,18.4-8.12l0.17-0.19l-7.57-6.46
						L511.83,307.46z"/>
					<polygon class="st0" points="429.92,275.53 419.51,275.53 419.51,321.38 452.08,321.38 452.08,312.07 429.92,312.07 					"/>
					<rect x="458.1" y="275.53" class="st0" width="10.67" height="45.85"/>
					<polygon class="st0" points="536.35,312.32 536.35,302.07 556.56,302.07 556.56,293.54 536.35,293.54 536.35,284.65 
						559.8,284.65 559.8,275.53 525.94,275.53 525.94,321.38 560.45,321.38 560.45,312.32 					"/>
				</g>
				<g>
					<g>
						<path class="st0" d="M343.94,164.2c3.76,0,6.82-3.06,6.82-6.82s-3.06-6.82-6.82-6.82s-6.82,3.06-6.82,6.82
							S340.18,164.2,343.94,164.2z"/>
						<path class="st0" d="M523.32,153.94c3.76,0,6.82-3.06,6.82-6.82s-3.06-6.82-6.82-6.82s-6.82,3.06-6.82,6.82
							S519.56,153.94,523.32,153.94z"/>
						<path class="st0" d="M513.85,169.67c3.76,0,6.82-3.06,6.82-6.82s-3.06-6.82-6.82-6.82s-6.82,3.06-6.82,6.82
							S510.08,169.67,513.85,169.67z"/>
						<path class="st0" d="M525.97,162.85c0,3.76,3.06,6.82,6.82,6.82s6.82-3.06,6.82-6.82s-3.06-6.82-6.82-6.82
							S525.97,159.09,525.97,162.85z"/>
						<path class="st0" d="M550.6,171.27l-11.47,6.96c2.69,4.44,10.65,19.84,6.95,41.67h-16.05v-41.66h-13.42v41.66h-10.18v-41.66
							h-13.42v41.66h-18.98v-47.13h-13.42v52.92c0,10.84-8.82,19.65-19.65,19.65h-3.42v13.42h3.42c15.61,0,28.72-10.87,32.17-25.44
							h83.67l1.25-5.11C565.29,198.68,554.18,177.17,550.6,171.27z"/>
						<path class="st0" d="M259.96,171.2l-6.03,11.99c17.43,8.76,18.46,26.01,17.15,36.72h-29.9v13.42h40.95l1.16-5.27
							C291.58,190.36,267.53,175.01,259.96,171.2z"/>
						<path class="st0" d="M444.84,233.33l3.55-11.96c3.2-10.78,1.11-22.62-5.59-31.65c-12.31-16.59-36.16-19.3-51.88-5.89
							l-11.83,10.09v-36.54h-13.42v62.53h-15.08v-47.13h-13.87c-18.5,0-33.55,15.05-33.55,33.55v26.99h13.42v-26.99
							c0-11.1,9.03-20.14,20.14-20.14h0.45v47.13H444.84z M379.08,211.56l20.54-17.52c9.81-8.37,24.71-6.69,32.4,3.68
							c4.2,5.66,5.51,13.08,3.51,19.84l-0.7,2.36h-55.74V211.56z"/>
						<path class="st0" d="M219.03,241.92c-3.77,0-6.83,3.06-6.83,6.83s3.06,6.83,6.83,6.83c3.77,0,6.83-3.06,6.83-6.83
							S222.79,241.92,219.03,241.92z"/>
						<path class="st0" d="M147.41,241.92c-3.77,0-6.83,3.06-6.83,6.83s3.06,6.83,6.83,6.83c3.77,0,6.83-3.06,6.83-6.83
							S151.18,241.92,147.41,241.92z"/>
						<circle class="st0" cx="130.24" cy="248.75" r="6.83"/>
						<path class="st0" d="M327.21,164.21c3.77,0,6.83-3.06,6.83-6.83s-3.06-6.83-6.83-6.83c-3.77,0-6.83,3.06-6.83,6.83
							S323.44,164.21,327.21,164.21z"/>
						<path class="st0" d="M219.74,211.71c0,4.52-3.68,8.2-8.2,8.2h-6.16v-47.13h-14.13c-18.14,0-32.35,14.74-32.35,33.55v13.57
							h-53.79v-1.81c0-14.06,3.56-28.46,10.01-40.55l-11.83-6.32c-7.48,14-11.59,30.64-11.59,46.87v15.23h80.62v-26.99
							c0-11.48,8.14-20.14,18.93-20.14h0.72v47.13h19.58c11.92,0,21.61-9.7,21.61-21.61v-38.93h-13.42V211.71z"/>
					</g>
				</g>
			</g>
		</g>
		<g>
			<path class="st0" d="M904.92,249.6c-2.32-0.13-4.66,0.03-6.98,0.44c1.56-1.69,3.09-3.67,4.56-6.02
				c5.18-8.31,6.23-17.97,3.67-26.3c-2.29,0.37-4.55,1.01-6.73,1.9c1.17-1.98,2.25-4.23,3.19-6.85c3.31-9.22,2.3-18.88-1.95-26.48
				c-2.16,0.84-4.23,1.94-6.18,3.28c0.73-2.18,1.31-4.61,1.67-7.37c1.3-9.71-1.73-18.94-7.49-25.48c-1.94,1.28-3.73,2.79-5.35,4.51
				c0.25-2.28,0.31-4.78,0.08-7.55c-0.78-9.77-5.68-18.15-12.69-23.33c-1.62,1.66-3.06,3.52-4.28,5.53
				c-0.23-2.29-0.71-4.74-1.51-7.4c-2.82-9.38-9.37-16.55-17.32-20.13c-1.24,1.96-2.25,4.08-3.02,6.31
				c-0.71-2.19-1.69-4.49-3.03-6.92c-4.73-8.58-12.65-14.2-21.17-16.04c-1.62,4.41-2.2,9.26-1.66,14.14
				c-1.04-0.77-2.17-1.53-3.39-2.27c-8.39-5.06-18.06-5.97-26.35-3.3c1.5,8.59,6.81,16.72,15.19,21.78
				c1.23,0.74,2.42,1.38,3.59,1.94c-4.57,1.8-8.59,4.57-11.74,8.06c4.69,5.6,11.54,9.58,19.4,10.84c3.42,6.36,9.22,11.6,16.55,14.45
				c2,6.94,6.57,13.28,13.14,17.61c0.49,7.2,3.62,14.37,9.13,19.98c-1.03,7.15,0.52,14.81,4.72,21.46
				c-2.52,6.77-2.62,14.59,0.09,21.97c-3.89,6.09-5.63,13.71-4.54,21.5c-5.08,5.13-8.39,12.21-8.96,20.06
				c-6.05,3.95-10.78,10.17-12.99,17.72c-6.74,2.58-12.68,7.68-16.43,14.59c-7.14,1.11-14.01,4.83-19.13,10.8
				c-8.62-0.51-17.66,2.72-24.5,9.59c-4.42,4.45-7,8.75-8.29,12.81c-2.15,7.26-12.47,7.26-14.63,0c-1.28-4.06-3.86-8.37-8.29-12.81
				c-6.84-6.87-15.89-10.1-24.5-9.59c-5.13-5.97-12-9.69-19.13-10.8c-3.75-6.91-9.69-12-16.43-14.59
				c-2.21-7.55-6.94-13.77-12.99-17.72c-0.57-7.84-3.88-14.93-8.96-20.06c1.09-7.79-0.65-15.41-4.54-21.5
				c2.71-7.38,2.61-15.2,0.09-21.97c4.2-6.65,5.75-14.31,4.72-21.46c5.51-5.61,8.64-12.78,9.13-19.98
				c6.57-4.33,11.14-10.67,13.14-17.61c7.33-2.85,13.13-8.09,16.55-14.45c7.86-1.25,14.71-5.23,19.4-10.84
				c-3.15-3.49-7.17-6.26-11.74-8.06c1.17-0.56,2.36-1.2,3.59-1.94c8.39-5.06,13.7-13.2,15.19-21.78
				c-8.29-2.68-17.96-1.77-26.35,3.3c-1.23,0.74-2.35,1.5-3.39,2.27c0.54-4.88-0.04-9.73-1.66-14.14
				c-8.52,1.83-16.44,7.46-21.17,16.04c-1.34,2.43-2.33,4.73-3.03,6.92c-0.77-2.23-1.78-4.35-3.02-6.31
				c-7.94,3.58-14.5,10.75-17.32,20.13c-0.8,2.66-1.28,5.12-1.51,7.4c-1.22-2.02-2.66-3.88-4.28-5.53
				c-7.01,5.18-11.91,13.56-12.69,23.33c-0.22,2.77-0.17,5.27,0.08,7.55c-1.62-1.71-3.42-3.23-5.35-4.51
				c-5.76,6.54-8.78,15.77-7.49,25.48c0.37,2.75,0.94,5.19,1.67,7.37c-1.95-1.33-4.02-2.44-6.18-3.28
				c-4.26,7.6-5.27,17.27-1.95,26.48c0.94,2.61,2.02,4.87,3.19,6.85c-2.18-0.89-4.44-1.54-6.73-1.9c-2.56,8.33-1.51,17.99,3.67,26.3
				c1.47,2.36,3,4.34,4.56,6.02c-2.32-0.41-4.67-0.57-6.98-0.44c-0.75,8.68,2.31,17.9,9.13,24.94c1.93,2,3.84,3.61,5.73,4.93
				c-2.36,0.09-4.68,0.43-6.92,1.04c1.1,8.65,6.03,17.01,14.18,22.46c2.31,1.54,4.52,2.72,6.64,3.61c-2.29,0.58-4.49,1.41-6.54,2.47
				c2.9,8.22,9.48,15.36,18.59,18.97c2.58,1.02,4.99,1.71,7.25,2.13c-2.11,1.05-4.09,2.32-5.88,3.8
				c4.56,7.43,12.5,13.02,22.17,14.63c2.74,0.46,5.24,0.62,7.53,0.56c-1.85,1.47-3.51,3.13-4.95,4.95
				c6.02,6.3,14.96,10.09,24.75,9.63c2.78-0.13,5.25-0.5,7.48-1.04c-1.49,1.83-2.77,3.8-3.79,5.88c7.21,4.89,16.75,6.72,26.22,4.2
				c4.56-1.21,8.18-2.89,11.04-4.86c9.2-6.26,21.4-6.41,30.82,0c2.86,1.97,6.47,3.65,11.04,4.86c9.47,2.52,19.01,0.69,26.22-4.2
				c-1.02-2.08-2.3-4.05-3.79-5.88c2.23,0.54,4.71,0.91,7.48,1.04c9.78,0.47,18.73-3.33,24.75-9.63c-1.44-1.82-3.1-3.48-4.95-4.95
				c2.3,0.06,4.79-0.1,7.53-0.56c9.66-1.6,17.6-7.2,22.17-14.63c-1.79-1.48-3.76-2.75-5.88-3.8c2.26-0.43,4.66-1.11,7.25-2.13
				c9.11-3.6,15.69-10.75,18.59-18.97c-2.06-1.07-4.26-1.89-6.54-2.47c2.12-0.89,4.33-2.07,6.64-3.61
				c8.15-5.44,13.08-13.81,14.18-22.46c-2.24-0.61-4.56-0.95-6.92-1.04c1.88-1.32,3.79-2.93,5.73-4.93
				C902.61,267.5,905.67,258.29,904.92,249.6z M701.73,318.92c5.18,1.94,9.91,5.63,13.24,10.82c3.99,6.22,5.3,11.68,4.33,16.55
				c-4.84-1.15-9.25-4.61-13.25-10.83C702.73,330.27,701.34,324.43,701.73,318.92z M683.8,305.04c4.65,2.98,8.5,7.59,10.66,13.36
				c2.59,6.92,2.73,12.53,0.75,17.09c-4.49-2.14-8.07-6.46-10.67-13.38C682.38,316.34,682.26,310.35,683.8,305.04z M669.2,287.69
				c3.92,3.9,6.71,9.21,7.61,15.31c1.08,7.31,0.02,12.83-2.87,16.87c-3.94-3.04-6.53-8.01-7.61-15.33
				C665.43,298.44,666.57,292.55,669.2,287.69z M658.58,267.66c3.01,4.63,4.62,10.41,4.21,16.57c-0.49,7.38-2.68,12.54-6.36,15.89
				c-3.21-3.8-4.7-9.21-4.21-16.58C652.63,277.37,654.98,271.86,658.58,267.66z M638.65,235.05c2.91-5.44,7.32-9.5,12.33-11.84
				c0.83,5.46-0.08,11.39-2.98,16.83c-3.48,6.52-7.61,10.33-12.34,11.86C634.3,247.12,635.17,241.57,638.65,235.05z M633.33,225.6
				c-0.32-4.96,1.7-10.2,6.47-15.84c3.99-4.71,9.16-7.74,14.55-8.98c-0.34,5.52-2.48,11.12-6.46,15.83
				C643.11,222.25,638.27,225.1,633.33,225.6z M642.85,260.01c1.69-5.93,5.16-10.83,9.56-14.17c1.97,5.16,2.32,11.15,0.63,17.08
				c-2.03,7.11-5.26,11.7-9.56,14.19C641.14,272.72,640.82,267.12,642.85,260.01z M652.71,193.68c-5.86,4.51-11.18,6.28-16.12,5.73
				c0.73-4.92,3.81-9.61,9.67-14.12c4.89-3.76,10.59-5.64,16.11-5.72C660.88,184.89,657.6,189.92,652.71,193.68z M709.77,132.21
				c-4.36,3.39-9.98,5.49-16.15,5.61c-7.39,0.14-12.73-1.6-16.37-4.98c3.51-3.52,8.78-5.47,16.17-5.61
				C699.58,127.11,705.28,128.98,709.77,132.21z M701.31,108.28c5.28-3.19,11.15-4.41,16.65-3.87c-2.08,5.12-5.9,9.75-11.18,12.93
				c-6.33,3.82-11.82,4.98-16.67,3.87C691.39,116.41,694.98,112.1,701.31,108.28z M677.06,110.39c2.98-5.4,7.45-9.4,12.49-11.68
				c0.76,5.47-0.23,11.39-3.21,16.79c-3.57,6.47-7.74,10.22-12.49,11.69C672.55,122.39,673.49,116.86,677.06,110.39z M673.67,143.07
				c6-1.41,11.97-0.78,17.04,1.43c-3.55,4.24-8.6,7.47-14.61,8.88c-7.2,1.7-12.78,1.12-17.05-1.42
				C661.74,147.78,666.48,144.77,673.67,143.07z M654.14,130.05c1.77-5.91,5.3-10.76,9.75-14.05c1.9,5.19,2.17,11.18,0.4,17.09
				c-2.13,7.08-5.42,11.63-9.75,14.06C652.26,142.74,652.02,137.13,654.14,130.05z M657.71,162.72c5.57-2.65,11.54-3.28,16.95-2.19
				c-2.58,4.89-6.84,9.11-12.41,11.76c-6.68,3.17-12.26,3.78-16.97,2.2C647.04,169.83,651.04,165.89,657.71,162.72z M635.88,154.11
				c0.49-6.15,2.92-11.63,6.57-15.78c2.95,4.67,4.48,10.47,3.99,16.62c-0.59,7.37-2.84,12.51-6.57,15.8
				C636.71,166.91,635.29,161.48,635.88,154.11z M626.19,164.66c3.87,3.95,6.59,9.3,7.4,15.41c0.98,7.33-0.15,12.82-3.09,16.83
				c-3.9-3.09-6.43-8.1-7.4-15.43C622.28,175.36,623.5,169.48,626.19,164.66z M615.84,193.82c4.61,3.05,8.4,7.7,10.48,13.51
				c2.5,6.96,2.56,12.57,0.52,17.1c-4.46-2.2-7.99-6.56-10.49-13.52C614.27,205.11,614.23,199.11,615.84,193.82z M611.87,224.52
				c5.15,2.01,9.83,5.76,13.09,10.99c3.91,6.27,5.15,11.75,4.11,16.61c-4.82-1.21-9.19-4.73-13.1-11.01
				C612.71,235.88,611.4,230.02,611.87,224.52z M621.96,270.71c-4.29-4.43-6.8-9.88-7.51-15.36c5.46,0.88,10.82,3.56,15.11,7.99
				c5.14,5.31,7.51,10.4,7.52,15.37C632.12,278.55,627.1,276.02,621.96,270.71z M634.05,298.39c-5.13-3.43-8.73-8.22-10.57-13.43
				c5.52-0.29,11.33,1.2,16.46,4.63c6.15,4.11,9.53,8.58,10.59,13.44C645.63,303.91,640.2,302.5,634.05,298.39z M651.7,322.9
				c-5.74-2.27-10.27-6.2-13.17-10.91c5.33-1.45,11.33-1.21,17.06,1.06c6.87,2.72,11.12,6.39,13.18,10.91
				C664.18,325.86,658.57,325.62,651.7,322.9z M674.11,343.14c-6.09-1.01-11.34-3.9-15.17-7.89c4.91-2.54,10.82-3.57,16.9-2.56
				c7.29,1.21,12.22,3.9,15.18,7.89C686.93,343.4,681.4,344.36,674.11,343.14z M700.28,358.21c-6.16,0.29-11.91-1.42-16.49-4.52
				c4.26-3.52,9.82-5.77,15.98-6.06c7.38-0.35,12.77,1.24,16.5,4.52C712.87,355.77,707.67,357.86,700.28,358.21z M729.05,367.43
				c-5.96,1.59-11.94,1.12-17.07-0.94c3.43-4.34,8.39-7.71,14.35-9.29c7.14-1.9,12.74-1.48,17.09,0.94
				C740.84,362.38,736.19,365.53,729.05,367.43z M729.9,343.97c-4.35-4.37-6.93-9.79-7.71-15.26c5.47,0.8,10.87,3.41,15.22,7.79
				c5.21,5.24,7.65,10.3,7.72,15.27C740.16,351.67,735.11,349.21,729.9,343.97z M901.94,224.52c0.47,5.51-0.84,11.36-4.1,16.6
				c-3.91,6.27-8.28,9.8-13.1,11.01c-1.04-4.86,0.2-10.34,4.11-16.61C892.11,230.27,896.79,226.52,901.94,224.52z M897.97,193.82
				c1.62,5.28,1.57,11.28-0.51,17.09c-2.5,6.96-6.03,11.32-10.49,13.52c-2.04-4.54-1.98-10.15,0.52-17.1
				C889.57,201.52,893.35,196.87,897.97,193.82z M880.22,180.07c0.82-6.11,3.54-11.46,7.4-15.41c2.69,4.83,3.91,10.7,3.1,16.81
				c-0.98,7.33-3.51,12.34-7.4,15.43C880.36,192.89,879.24,187.4,880.22,180.07z M865.81,240.04c-2.91-5.44-3.82-11.37-2.98-16.83
				c5,2.35,9.42,6.4,12.33,11.84c3.48,6.52,4.35,12.06,2.99,16.85C873.42,250.37,869.3,246.56,865.81,240.04z M870.33,277.11
				c-4.3-2.49-7.53-7.08-9.56-14.19c-1.69-5.93-1.34-11.92,0.63-17.08c4.4,3.35,7.86,8.24,9.56,14.17
				C872.99,267.12,872.67,272.72,870.33,277.11z M865.92,216.61c-3.99-4.71-6.13-10.31-6.46-15.83c5.39,1.24,10.56,4.27,14.55,8.98
				c4.78,5.64,6.8,10.88,6.47,15.84C875.53,225.1,870.7,222.25,865.92,216.61z M871.36,138.33c3.65,4.15,6.08,9.63,6.57,15.78
				c0.59,7.37-0.83,12.8-3.99,16.64c-3.73-3.29-5.98-8.43-6.57-15.8C866.88,148.8,868.41,143,871.36,138.33z M849.92,116.01
				c4.44,3.29,7.97,8.14,9.75,14.05c2.13,7.08,1.88,12.69-0.39,17.11c-4.34-2.44-7.62-6.98-9.75-14.06
				C847.75,127.19,848.02,121.2,849.92,116.01z M824.26,98.71c5.03,2.28,9.51,6.28,12.49,11.68c3.57,6.47,4.51,12.01,3.22,16.81
				c-4.75-1.47-8.92-5.22-12.49-11.69C824.49,110.1,823.5,104.18,824.26,98.71z M807.03,117.34c-5.28-3.19-9.1-7.81-11.18-12.93
				c5.5-0.55,11.37,0.68,16.65,3.87c6.33,3.82,9.91,8.14,11.19,12.94C818.85,122.32,813.36,121.16,807.03,117.34z M820.19,137.81
				c-6.17-0.12-11.79-2.21-16.15-5.61c4.49-3.22,10.19-5.1,16.35-4.98c7.39,0.14,12.65,2.09,16.17,5.61
				C832.92,136.21,827.58,137.96,820.19,137.81z M823.1,144.5c5.07-2.21,11.03-2.84,17.04-1.43c7.2,1.7,11.93,4.71,14.62,8.89
				c-4.28,2.54-9.86,3.12-17.05,1.42C831.7,151.97,826.65,148.73,823.1,144.5z M839.14,160.53c5.42-1.09,11.38-0.45,16.95,2.19
				c6.68,3.17,10.67,7.11,12.42,11.77c-4.71,1.58-10.29,0.97-16.97-2.2C845.97,169.64,841.72,165.41,839.14,160.53z M851.44,179.57
				c5.53,0.08,11.22,1.95,16.11,5.72c5.86,4.51,8.93,9.2,9.67,14.12c-4.94,0.55-10.27-1.22-16.12-5.73
				C856.21,189.92,852.93,184.89,851.44,179.57z M855.23,267.66c3.59,4.2,5.95,9.71,6.36,15.87c0.49,7.38-1,12.79-4.21,16.58
				c-3.68-3.34-5.87-8.51-6.36-15.89C850.61,278.07,852.22,272.29,855.23,267.66z M837,303c0.9-6.1,3.69-11.41,7.61-15.31
				c2.63,4.86,3.77,10.75,2.87,16.85c-1.08,7.31-3.67,12.29-7.61,15.33C836.98,315.83,835.92,310.32,837,303z M819.34,318.4
				c2.16-5.78,6.01-10.38,10.66-13.36c1.55,5.31,1.42,11.3-0.74,17.08c-2.59,6.92-6.18,11.24-10.67,13.38
				C816.62,330.94,816.75,325.33,819.34,318.4z M798.84,329.74c3.33-5.19,8.06-8.88,13.24-10.82c0.39,5.51-0.99,11.35-4.32,16.54
				c-3.99,6.22-8.41,9.68-13.25,10.83C793.53,341.42,794.84,335.96,798.84,329.74z M776.4,336.5c4.35-4.37,9.75-6.98,15.22-7.79
				c-0.78,5.47-3.36,10.89-7.71,15.26c-5.21,5.24-10.26,7.7-15.23,7.8C768.76,346.8,771.19,341.74,776.4,336.5z M784.76,367.43
				c-7.14-1.9-11.79-5.04-14.36-9.3c4.35-2.42,9.94-2.84,17.09-0.94c5.96,1.59,10.92,4.96,14.35,9.29
				C796.7,368.55,790.72,369.01,784.76,367.43z M813.52,358.21c-7.38-0.35-12.59-2.45-16-6.06c3.74-3.28,9.12-4.87,16.5-4.52
				c6.16,0.29,11.72,2.55,15.98,6.06C825.43,356.79,819.69,358.51,813.52,358.21z M839.7,343.14c-7.29,1.21-12.82,0.26-16.92-2.56
				c2.96-3.99,7.89-6.68,15.18-7.89c6.09-1.01,11.99,0.02,16.9,2.56C851.04,339.25,845.78,342.13,839.7,343.14z M862.11,322.9
				c-6.87,2.72-12.48,2.96-17.08,1.06c2.06-4.53,6.31-8.19,13.18-10.91c5.74-2.27,11.73-2.5,17.06-1.06
				C872.38,316.7,867.85,320.63,862.11,322.9z M890.33,284.96c-1.84,5.21-5.44,10.01-10.57,13.43c-6.15,4.11-11.58,5.52-16.47,4.64
				c1.06-4.86,4.44-9.34,10.59-13.44C879,286.16,884.81,284.66,890.33,284.96z M876.72,278.72c0.01-4.97,2.37-10.06,7.52-15.37
				c4.29-4.43,9.66-7.11,15.11-7.99c-0.7,5.48-3.21,10.93-7.51,15.36C886.7,276.02,881.69,278.55,876.72,278.72z"/>
			<path class="st0" d="M673.28,244.22v3.76c1.13,2.39,6.78,13.17,16.18,26.78h-13.42c0,0,2.67,5.51,10.93,5.51h139.85
				c8.27,0,10.93-5.51,10.93-5.51H825.5c7.45-11.07,11.06-17.69,16.92-28.74h6.72v-10.54h-36.49
				c-38.34-31.12-46.54-84.31-24.23-124.12C724.64,124.07,676.74,179.53,673.28,244.22z M676.1,244.29
				c18.84-11.67,40.5-18.41,62.72-19.68v19.68H676.1z M809.39,240.01l-3.17,4.28h-58.77V224.4
				C768.49,224.54,789.77,229.59,809.39,240.01z M797.36,228.44c-37.68-14.72-81.07-12.59-117.81,7.48
				c6.7-55.73,46.75-101.37,98.89-116.41C763.69,155.33,769.91,197.91,797.36,228.44z"/>
			<path class="st0" d="M750.7,326.65h12.41c8.27,0,10.93-5.51,10.93-5.51h-34.28C739.76,321.14,742.43,326.65,750.7,326.65z"/>
			<path class="st0" d="M799,309.55h-84.19c0,0,2.67,5.51,10.93,5.51h62.32C796.33,315.06,799,309.55,799,309.55z"/>
			<path class="st0" d="M818.01,297.95H695.79c0,0,2.67,5.51,10.93,5.51h100.35C815.35,303.46,818.01,297.95,818.01,297.95z"/>
			<path class="st0" d="M829.6,286.36H684.21c0,0,2.67,5.51,10.93,5.51h123.53C826.93,291.87,829.6,286.36,829.6,286.36z"/>
		</g>
	</g>
</g>
<g id="Clear_Space">
	
		<rect x="907.51" y="0" transform="matrix(-1 -4.489221e-11 4.489221e-11 -1 1906.715 91.6951)" class="st1" width="91.7" height="91.7"/>
	
		<rect x="0" y="373.87" transform="matrix(-1 -4.489221e-11 4.489221e-11 -1 91.6951 839.4355)" class="st1" width="91.7" height="91.7"/>
	<rect class="st1" width="91.7" height="91.7"/>
	<rect x="907.51" y="373.87" class="st1" width="91.7" height="91.7"/>
</g>
</svg>
